<?xml version="1.0" encoding="UTF-8" standalone="no"?>
<!-- Created with Inkscape (http://www.inkscape.org/) -->

<svg
   width="32"
   height="32"
   viewBox="0 0 32 32"
   version="1.1"
   id="svg1"
   inkscape:version="1.4.2 (f4327f4, 2025-05-13)"
   sodipodi:docname="MarkerVeicolare.svg"
   xml:space="preserve"
   xmlns:inkscape="http://www.inkscape.org/namespaces/inkscape"
   xmlns:sodipodi="http://sodipodi.sourceforge.net/DTD/sodipodi-0.dtd"
   xmlns="http://www.w3.org/2000/svg"
   xmlns:svg="http://www.w3.org/2000/svg"><sodipodi:namedview
     id="namedview1"
     pagecolor="#000000"
     bordercolor="#ffffff"
     borderopacity="0.88235294"
     inkscape:showpageshadow="2"
     inkscape:pageopacity="0.0"
     inkscape:pagecheckerboard="0"
     inkscape:deskcolor="#000000"
     inkscape:document-units="px"
     inkscape:zoom="9.4921875"
     inkscape:cx="28.07572"
     inkscape:cy="38.6107"
     inkscape:window-width="1538"
     inkscape:window-height="1203"
     inkscape:window-x="2392"
     inkscape:window-y="147"
     inkscape:window-maximized="0"
     inkscape:current-layer="layer1" /><defs
     id="defs1" /><g
     inkscape:label="Livello 1"
     inkscape:groupmode="layer"
     id="layer1"><ellipse
       style="fill:#d45353;stroke-width:2.02504"
       id="path1"
       cx="16.375719"
       cy="11.279425"
       inkscape:transform-center-x="-0.38915929"
       inkscape:transform-center-y="-0.27402949"
       rx="11.081893"
       ry="11.147737" /><path
       sodipodi:type="star"
       style="fill:#d45353"
       id="path4"
       inkscape:flatsided="true"
       sodipodi:sides="3"
       sodipodi:cx="5.6362138"
       sodipodi:cy="9.3234568"
       sodipodi:r1="3.6685712"
       sodipodi:r2="1.8342856"
       sodipodi:arg1="0.51825564"
       sodipodi:arg2="1.5654532"
       inkscape:rounded="1"
       inkscape:randomized="0"
       d="M 8.8230451,11.140741 C 5.6754169,16.660494 5.6754169,16.660494 2.468984,11.174692 -0.73744887,5.6888888 -0.73744887,5.6888888 5.6166122,5.6549379 11.970673,5.620987 11.970673,5.620987 8.8230451,11.140741 Z"
       inkscape:transform-center-x="0.028350359"
       inkscape:transform-center-y="2.3793478"
       transform="matrix(2.0707311,0,0,2.0797811,4.6991325,-0.93881729)" /><path
       d="M 17.347099,4.6337072 18.994358,7.446194 H 15.179355 V 4.6337072 Z M 21.127787,7.446194 18.914283,3.6698473 C 18.585403,3.1044187 17.9877,2.7587184 17.347099,2.7587184 h -3.082888 c -0.506187,0 -0.915141,0.4189442 -0.915141,0.9374944 V 7.446194 H 9.2309236 c -0.7578524,0 -1.3727138,0.6298794 -1.3727138,1.4062401 v 2.3437379 c -0.5061907,0 -0.915145,0.418944 -0.915145,0.937494 0,0.518555 0.4089543,0.937498 0.915145,0.937498 H 8.784789 c -0.00571,0.07617 -0.011427,0.155271 -0.011427,0.234371 0,1.423823 1.1267693,2.578112 2.516645,2.578112 1.389872,0 2.516642,-1.154289 2.516642,-2.578112 0,-0.0791 -0.0028,-0.158201 -0.01143,-0.234371 h 4.595735 c -0.0057,0.07617 -0.01143,0.155271 -0.01143,0.234371 0,1.423823 1.126769,2.578112 2.516645,2.578112 1.389873,0 2.516646,-1.154289 2.516646,-2.578112 0,-0.0791 -0.0028,-0.158201 -0.01143,-0.234371 h 0.926583 c 0.506187,0 0.915145,-0.418943 0.915145,-0.937498 0,-0.51855 -0.408958,-0.937494 -0.915145,-0.937494 V 8.8524341 c 0,-0.7763607 -0.614862,-1.4062401 -1.372714,-1.4062401 h -1.830269 z m -10.981722,5.859341 c 0,-0.647454 0.511908,-1.171869 1.143932,-1.171869 0.632019,0 1.143927,0.524415 1.143927,1.171869 0,0.647459 -0.511908,1.17187 -1.143927,1.17187 -0.632024,0 -1.143932,-0.524411 -1.143932,-1.17187 z m 10.752936,-1.171869 c 0.63202,0 1.143928,0.524415 1.143928,1.171869 0,0.647459 -0.511908,1.17187 -1.143928,1.17187 -0.632023,0 -1.143931,-0.524411 -1.143931,-1.17187 0,-0.647454 0.511908,-1.171869 1.143931,-1.171869 z"
       id="path1-7"
       style="stroke-width:0.5;stroke-dasharray:none;stroke:#000000;stroke-opacity:1;fill:none" /></g></svg>
