<!-- Created with Inkscape (http://www.inkscape.org/) -->
<svg width="32" height="32" version="1.1" viewBox="0 0 32 32" xmlns="http://www.w3.org/2000/svg">
 <g id="marker" transform="translate(-.376)" fill="#d45353">
  <ellipse cx="16.376" cy="11.279" rx="11.082" ry="11.148" stroke-width="2.025"/>
  <path transform="matrix(2.0707 0 0 2.0798 4.6991 -.93882)" d="m8.823 11.141c-3.1476 5.5198-3.1476 5.5198-6.3541 0.03395-3.2064-5.4858-3.2064-5.4858 3.1476-5.5198 6.3541-0.033951 6.3541-0.033951 3.2064 5.4858z"/>
 </g>
 <path id="Icon" d="m15.521 1.2232c0.27386-0.26945 0.68917-0.26945 0.96303 0l6.982 6.8349c0.29794 0.28917 0.32202 0.78864 0.05414 1.114-0.26785 0.32532-0.72228 0.3516-1.0202 0.05916l-0.24076-0.23659v6.7462c0 1.16-0.86372 2.103-1.9261 2.103h-8.6673c-1.0624 0-1.9261-0.94309-1.9261-2.103v-6.7462l-0.24076 0.23659c-0.29794 0.28917-0.75238 0.26289-1.0202-0.05916-0.26784-0.32203-0.24075-0.82151 0.05414-1.114zm0.48152 1.6463-4.8152 4.7154v8.1592c0 0.28917 0.21669 0.52576 0.48152 0.52576h1.4446v-3.4175c0-1.3078 0.96906-2.3659 2.1668-2.3659h1.4446c1.1978 0 2.1668 1.0581 2.1668 2.3659v3.4175h1.4446c0.26484 0 0.48153-0.23659 0.48153-0.52576v-8.1592l-4.8152-4.7121zm-1.4446 13.4h2.8891v-3.4175c0-0.43704-0.32202-0.78864-0.72228-0.78864h-1.4446c-0.40026 0-0.72228 0.35161-0.72228 0.78864z" fill="#020202" stroke-width=".5"/>
</svg>
