<?xml version="1.0" encoding="UTF-8" standalone="no"?>
<!-- Created with Inkscape (http://www.inkscape.org/) -->

<svg
   width="32"
   height="32"
   viewBox="0 0 32 32"
   version="1.1"
   id="svg1"
   inkscape:version="1.4.2 (f4327f4, 2025-05-13)"
   sodipodi:docname="MarkerAlert.svg"
   xml:space="preserve"
   xmlns:inkscape="http://www.inkscape.org/namespaces/inkscape"
   xmlns:sodipodi="http://sodipodi.sourceforge.net/DTD/sodipodi-0.dtd"
   xmlns="http://www.w3.org/2000/svg"
   xmlns:svg="http://www.w3.org/2000/svg"><sodipodi:namedview
     id="namedview1"
     pagecolor="#000000"
     bordercolor="#ffffff"
     borderopacity="0.88235294"
     inkscape:showpageshadow="2"
     inkscape:pageopacity="0.0"
     inkscape:pagecheckerboard="0"
     inkscape:deskcolor="#000000"
     inkscape:document-units="px"
     inkscape:zoom="9.4921875"
     inkscape:cx="26.390123"
     inkscape:cy="17.435391"
     inkscape:window-width="1538"
     inkscape:window-height="1203"
     inkscape:window-x="2392"
     inkscape:window-y="147"
     inkscape:window-maximized="0"
     inkscape:current-layer="layer1" /><defs
     id="defs1" /><g
     inkscape:label="Livello 1"
     inkscape:groupmode="layer"
     id="layer1"><ellipse
       style="fill:#d45353;stroke-width:2.02504"
       id="path1"
       cx="16.375719"
       cy="11.279425"
       inkscape:transform-center-x="-0.38915929"
       inkscape:transform-center-y="-0.27402949"
       rx="11.081893"
       ry="11.147737" /><path
       sodipodi:type="star"
       style="fill:#d45353"
       id="path4"
       inkscape:flatsided="true"
       sodipodi:sides="3"
       sodipodi:cx="5.6362138"
       sodipodi:cy="9.3234568"
       sodipodi:r1="3.6685712"
       sodipodi:r2="1.8342856"
       sodipodi:arg1="0.51825564"
       sodipodi:arg2="1.5654532"
       inkscape:rounded="1"
       inkscape:randomized="0"
       d="M 8.8230451,11.140741 C 5.6754169,16.660494 5.6754169,16.660494 2.468984,11.174692 -0.73744887,5.6888888 -0.73744887,5.6888888 5.6166122,5.6549379 11.970673,5.620987 11.970673,5.620987 8.8230451,11.140741 Z"
       inkscape:transform-center-x="0.028350359"
       inkscape:transform-center-y="2.3793478"
       transform="matrix(2.0707311,0,0,2.0797811,4.6991325,-0.93881729)" /><path
       d="m 16.278189,21.499165 c 1.132414,0 2.049619,0.804555 2.049619,1.797883 0,0.993329 -0.917205,1.797884 -2.049619,1.797884 -1.132415,0 -2.049619,-0.804555 -2.049619,-1.797884 0,-0.993328 0.917204,-1.797883 2.049619,-1.797883 z m 0,-19.4171447 c 1.357873,0 2.459542,0.9663626 2.459542,2.1574625 0,0.02696 0,0.049437 0,0.076409 L 17.917884,17.97981 c -0.04612,0.764095 -0.768608,1.361893 -1.639695,1.361893 -0.871088,0 -1.588455,-0.597798 -1.639695,-1.361893 L 13.818646,4.3158919 c 0,-0.026961 0,-0.049437 0,-0.076409 0,-1.1910999 1.101671,-2.1574625 2.459543,-2.1574626 z"
       id="path1-1"
       style="fill:none;stroke:#000000;stroke-width:0.453343;stroke-dasharray:none;stroke-opacity:1" /></g></svg>
