<!-- Created with Inkscape (http://www.inkscape.org/) -->
<svg width="32" height="32" version="1.1" viewBox="0 0 32 32" xmlns="http://www.w3.org/2000/svg">
 <g id="marker" transform="translate(-.376)" fill="#d45353">
  <ellipse cx="16.376" cy="11.279" rx="11.082" ry="11.148" stroke-width="2.025"/>
  <path transform="matrix(2.0707 0 0 2.0798 4.6991 -.93882)" d="m8.823 11.141c-3.1476 5.5198-3.1476 5.5198-6.3541 0.03395-3.2064-5.4858-3.2064-5.4858 3.1476-5.5198 6.3541-0.033951 6.3541-0.033951 3.2064 5.4858z"/>
 </g>
 <path id="icon" d="m17.111 4.0109 1.4595 2.51h-3.3802v-2.51zm3.3498 2.51-1.9612-3.3701c-0.29139-0.50461-0.82097-0.81312-1.3886-0.81312h-2.7315c-0.44849 0-0.81083 0.37388-0.81083 0.83665v3.3466h-3.6488c-0.67147 0-1.2162 0.56213-1.2162 1.255v2.0916c-0.44849 0-0.81083 0.37388-0.81083 0.83665 0 0.46278 0.36234 0.83666 0.81083 0.83666h0.82097c-0.00505 0.06798-0.010127 0.13857-0.010127 0.20916 0 1.2707 0.99834 2.3008 2.2298 2.3008 1.2315 0 2.2298-1.0301 2.2298-2.3008 0-0.07059-0.0025-0.14118-0.01013-0.20916h4.0719c-5e-3 0.06798-0.01013 0.13857-0.01013 0.20916 0 1.2707 0.99834 2.3008 2.2298 2.3008 1.2315 0 2.2298-1.0301 2.2298-2.3008 0-0.07059-0.0025-0.14118-0.01013-0.20916h0.82097c0.44849 0 0.81084-0.37388 0.81084-0.83666 0-0.46277-0.36234-0.83665-0.81084-0.83665v-2.0916c0-0.69285-0.54478-1.255-1.2162-1.255h-1.6216zm-9.73 5.2291c0-0.57781 0.45356-1.0458 1.0135-1.0458 0.55998 0 1.0135 0.46801 1.0135 1.0458 0 0.57782-0.45356 1.0458-1.0135 1.0458-0.55998 0-1.0135-0.468-1.0135-1.0458zm9.5273-1.0458c0.55998 0 1.0135 0.46801 1.0135 1.0458 0 0.57782-0.45356 1.0458-1.0135 1.0458-0.55998 0-1.0135-0.468-1.0135-1.0458 0-0.57781 0.45356-1.0458 1.0135-1.0458z" fill="none" stroke="#000000" stroke-width=".44461"/>
</svg>
