<!-- Created with Inkscape (http://www.inkscape.org/) -->
<svg width="32" height="32" version="1.1" viewBox="0 0 32 32" xmlns="http://www.w3.org/2000/svg">
 <g id="marker" transform="translate(-.376)" fill="#d45353">
  <ellipse cx="16.376" cy="11.279" rx="11.082" ry="11.148" stroke-width="2.025"/>
  <path transform="matrix(2.0707 0 0 2.0798 4.6991 -.93882)" d="m8.823 11.141c-3.1476 5.5198-3.1476 5.5198-6.3541 0.03395-3.2064-5.4858-3.2064-5.4858 3.1476-5.5198 6.3541-0.033951 6.3541-0.033951 3.2064 5.4858z"/>
 </g>
 <path id="icon" d="m13.308 1.6728c0.3443 0 0.62131 0.3668 0.62131 0.82273v2.4682h1.2426c0-0.60677 0.3702-1.097 0.82841-1.097s0.8284 0.49021 0.8284 1.097h0.82841c0-0.60677 0.37019-1.097 0.82841-1.097s0.82841 0.49021 0.82841 1.097h0.4142c0.68602 0 1.2426 0.73703 1.2426 1.6455v5.5157c0 0.33938-0.05955 0.67533-0.17604 0.98042l-0.52293 1.3849c-0.08543 0.22968-0.13203 0.47993-0.13203 0.73703v2.9036c0 1.2101-0.74298 2.194-1.6568 2.194l-4.9678-0.0035c-0.91383 0-1.6568-0.98385-1.6568-2.194v-2.9036c0-0.2571-0.04401-0.50735-0.13203-0.73703l-0.52034-1.3814c-0.11649-0.3051-0.17604-0.64105-0.17604-0.98042v-5.5157c0-0.90844 0.55658-1.6455 1.2426-1.6455h0.4142v-2.4682c0-0.45593 0.277-0.82273 0.62131-0.82273zm0.82841 6.0334c-0.34431 0-0.62131 0.3668-0.62131 0.82273s0.277 0.82274 0.62131 0.82274h3.7278c0.34431 0 0.6213-0.3668 0.6213-0.82274s-0.277-0.82273-0.6213-0.82273zm0 3.2909c-0.34431 0-0.62131 0.3668-0.62131 0.82273 0 0.45594 0.277 0.82274 0.62131 0.82274h3.7278c0.34431 0 0.6213-0.3668 0.6213-0.82274 0-0.45593-0.277-0.82273-0.6213-0.82273z" fill="none" stroke="#000000" stroke-width=".45349"/>
</svg>
