<?xml version="1.0" encoding="UTF-8" standalone="no"?>
<!-- Created with Inkscape (http://www.inkscape.org/) -->

<svg
   width="32"
   height="32"
   viewBox="0 0 32 32"
   version="1.1"
   id="svg1"
   inkscape:version="1.4.2 (f4327f4, 2025-05-13)"
   sodipodi:docname="MarkerPortatile.svg"
   xml:space="preserve"
   xmlns:inkscape="http://www.inkscape.org/namespaces/inkscape"
   xmlns:sodipodi="http://sodipodi.sourceforge.net/DTD/sodipodi-0.dtd"
   xmlns="http://www.w3.org/2000/svg"
   xmlns:svg="http://www.w3.org/2000/svg"><sodipodi:namedview
     id="namedview1"
     pagecolor="#000000"
     bordercolor="#ffffff"
     borderopacity="0.88235294"
     inkscape:showpageshadow="2"
     inkscape:pageopacity="0.0"
     inkscape:pagecheckerboard="0"
     inkscape:deskcolor="#000000"
     inkscape:document-units="px"
     inkscape:zoom="18.984375"
     inkscape:cx="17.725103"
     inkscape:cy="11.404115"
     inkscape:window-width="1538"
     inkscape:window-height="1203"
     inkscape:window-x="2392"
     inkscape:window-y="147"
     inkscape:window-maximized="0"
     inkscape:current-layer="layer1" /><defs
     id="defs1" /><g
     inkscape:label="Livello 1"
     inkscape:groupmode="layer"
     id="layer1"><ellipse
       style="fill:#d45353;stroke-width:2.02504"
       id="path1"
       cx="16.375719"
       cy="11.279425"
       inkscape:transform-center-x="-0.38915929"
       inkscape:transform-center-y="-0.27402949"
       rx="11.081893"
       ry="11.147737" /><path
       sodipodi:type="star"
       style="fill:#d45353"
       id="path4"
       inkscape:flatsided="true"
       sodipodi:sides="3"
       sodipodi:cx="5.6362138"
       sodipodi:cy="9.3234568"
       sodipodi:r1="3.6685712"
       sodipodi:r2="1.8342856"
       sodipodi:arg1="0.51825564"
       sodipodi:arg2="1.5654532"
       inkscape:rounded="1"
       inkscape:randomized="0"
       d="M 8.8230451,11.140741 C 5.6754169,16.660494 5.6754169,16.660494 2.468984,11.174692 -0.73744887,5.6888888 -0.73744887,5.6888888 5.6166122,5.6549379 11.970673,5.620987 11.970673,5.620987 8.8230451,11.140741 Z"
       inkscape:transform-center-x="0.028350359"
       inkscape:transform-center-y="2.3793478"
       transform="matrix(2.0707311,0,0,2.0797811,4.6991325,-0.93881729)" /><path
       d="m 13.47456,1.9732944 c 0.386643,0 0.697705,0.3970789 0.697705,0.8906448 v 2.6719366 h 1.395406 c 0,-0.6568522 0.415716,-1.187528 0.930271,-1.187528 0.514556,0 0.930271,0.5306758 0.930271,1.187528 h 0.930272 c 0,-0.6568522 0.415714,-1.187528 0.930272,-1.187528 0.514555,0 0.930271,0.5306758 0.930271,1.187528 h 0.465135 c 0.770381,0 1.395408,0.7978696 1.395408,1.7812899 V 13.2882 c 0,0.367389 -0.06687,0.731071 -0.197683,1.06135 l -0.587233,1.499254 c -0.09593,0.248639 -0.148262,0.519544 -0.148262,0.797869 v 3.143235 c 0,1.309991 -0.834337,2.375055 -1.860544,2.375055 l -5.578722,-0.0038 c -1.026205,0 -1.860541,-1.065064 -1.860541,-2.375056 v -3.143234 c 0,-0.278325 -0.04942,-0.549231 -0.148263,-0.79787 l -0.584328,-1.495474 c -0.130817,-0.330279 -0.19768,-0.693961 -0.19768,-1.061351 V 7.3171639 c 0,-0.9834212 0.625025,-1.7812899 1.395405,-1.7812899 h 0.465136 V 2.8639374 c 0,-0.4935659 0.31106,-0.8906448 0.697704,-0.8906448 z m 0.930272,6.531398 c -0.386643,0 -0.697705,0.3970789 -0.697705,0.8906447 0,0.4935658 0.311062,0.8906479 0.697705,0.8906479 h 4.18622 c 0.386644,0 0.697705,-0.3970821 0.697705,-0.8906479 0,-0.4935658 -0.311061,-0.8906447 -0.697705,-0.8906447 z m 0,3.5625816 c -0.386643,0 -0.697705,0.397078 -0.697705,0.890642 0,0.493568 0.311062,0.890647 0.697705,0.890647 h 4.18622 c 0.386644,0 0.697705,-0.397079 0.697705,-0.890647 0,-0.493564 -0.311061,-0.890642 -0.697705,-0.890642 z"
       id="path1-5"
       style="fill:none;stroke:#000000;stroke-width:0.5;stroke-linejoin:miter;stroke-dasharray:none;stroke-opacity:1" /></g></svg>
