<!-- Created with Inkscape (http://www.inkscape.org/) -->
<svg width="32" height="32" version="1.1" viewBox="0 0 32 32" xmlns="http://www.w3.org/2000/svg">
 <g id="marker" transform="translate(0 .037427)" fill="#d45353">
  <ellipse cx="16.376" cy="11.279" rx="11.082" ry="11.148" stroke-width="2.025"/>
  <path transform="matrix(2.0707 0 0 2.0798 4.6991 -.93882)" d="m8.823 11.141c-3.1476 5.5198-3.1476 5.5198-6.3541 0.03395-3.2064-5.4858-3.2064-5.4858 3.1476-5.5198 6.3541-0.033951 6.3541-0.033951 3.2064 5.4858z"/>
 </g>
 <g stroke="#000000">
  <path id="icon" d="m16.376 12.684c0.397 0 0.71856 0.3121 0.71856 0.69743 0 0.38533-0.32156 0.69744-0.71856 0.69744s-0.71856-0.3121-0.71856-0.69744c0-0.38533 0.32156-0.69743 0.71856-0.69743zm0-7.5322c0.47606 0 0.86226 0.37487 0.86226 0.83693v0.02964l-0.28743 5.3005c-0.01617 0.2964-0.26946 0.5283-0.57485 0.5283s-0.5569-0.2319-0.57485-0.5283l-0.28743-5.3005v-0.029639c0-0.46205 0.38624-0.83693 0.86226-0.83693z" fill="#000000" stroke-width=".16718"/>
  <path transform="matrix(24.537 -.90592 1.0292 26.249 -173.63 -119.91)" d="m7.8222 5.4269c-0.00324 0.00519-0.60832-0.016-0.61119-0.021401-0.00287-0.0054 0.31801-0.51882 0.32413-0.5186 0.00611 2.14e-4 0.2903 0.53482 0.28706 0.54z" fill="none" stroke-width=".042591"/>
 </g>
</svg>
