<?xml version="1.0" encoding="UTF-8" standalone="no"?>
<!-- Created with Inkscape (http://www.inkscape.org/) -->

<svg
   width="32"
   height="32"
   viewBox="0 0 32 32"
   version="1.1"
   id="svg1"
   xml:space="preserve"
   xmlns="http://www.w3.org/2000/svg"
   xmlns:svg="http://www.w3.org/2000/svg"><defs
     id="defs1" /><g
     id="layer1"><ellipse
       style="fill:#d45353;stroke-width:2.02504"
       id="path1"
       cx="16.375719"
       cy="11.279425"
       rx="11.081893"
       ry="11.147737" /><path
       style="fill:#d45353"
       id="path4"
       d="M 8.8230451,11.140741 C 5.6754169,16.660494 5.6754169,16.660494 2.468984,11.174692 -0.73744887,5.6888888 -0.73744887,5.6888888 5.6166122,5.6549379 11.970673,5.620987 11.970673,5.620987 8.8230451,11.140741 Z"
       transform="matrix(2.0707311,0,0,2.0797811,4.6991325,-0.93881729)" /><path
       d="m 15.974372,1.886022 c 0.273863,-0.2694532 0.68917,-0.2694532 0.963033,0 l 6.982036,6.8349209 c 0.297939,0.2891704 0.322015,0.788643 0.05414,1.1139592 -0.267853,0.3253169 -0.72228,0.3516009 -1.020219,0.059158 L 22.712602,9.657474 v 6.746191 c 0,1.15996 -0.863724,2.10305 -1.926077,2.10305 h -8.667348 c -1.062353,0 -1.926077,-0.94309 -1.926077,-2.10305 V 9.657474 L 9.9523371,9.8940605 C 9.6543977,10.183231 9.1999621,10.156947 8.9321179,9.8349021 8.6642737,9.5128733 8.6913642,9.0133929 8.9862617,8.7209429 Z m 0.481516,1.6462981 -4.815195,4.7154341 v 8.1591828 c 0,0.28917 0.216686,0.525756 0.481516,0.525756 h 1.44456 v -3.417456 c 0,-1.307832 0.969062,-2.365928 2.16684,-2.365928 h 1.444559 c 1.197778,0 2.16684,1.058096 2.16684,2.365928 v 3.417456 h 1.44455 c 0.264839,0 0.481526,-0.236586 0.481526,-0.525756 V 8.2477542 L 16.455888,3.5356075 Z M 15.011329,16.932693 h 2.889119 v -3.417456 c 0,-0.437035 -0.322016,-0.788643 -0.72228,-0.788643 h -1.444559 c -0.400264,0 -0.72228,0.351608 -0.72228,0.788643 z"
       id="path1-2"
       style="stroke-width:0.5;stroke-dasharray:none" /></g></svg>
